<svg xmlns="http://www.w3.org/2000/svg" viewBox="0 0 1200 820" role="img" aria-label="خلفية قماشية أنيقة">
  <defs>
    <linearGradient id="fabric" x1="0" y1="0" x2="1" y2="1">
      <stop offset="0" stop-color="#180b11"/>
      <stop offset="0.48" stop-color="#32101d"/>
      <stop offset="1" stop-color="#080609"/>
    </linearGradient>
    <linearGradient id="gold" x1="0" y1="0" x2="1" y2="0">
      <stop offset="0" stop-color="#f4d7a1" stop-opacity="0"/>
      <stop offset="0.5" stop-color="#f1c47d" stop-opacity="0.76"/>
      <stop offset="1" stop-color="#f4d7a1" stop-opacity="0"/>
    </linearGradient>
    <filter id="soft">
      <feGaussianBlur stdDeviation="18"/>
    </filter>
  </defs>
  <rect width="1200" height="820" fill="url(#fabric)"/>
  <path d="M-90 620 C210 520 318 738 624 612 C866 512 942 258 1290 300 L1290 920 L-90 920 Z" fill="#070507" opacity="0.92"/>
  <path d="M-80 176 C176 52 362 278 562 178 C812 54 1008 92 1280 -44" fill="none" stroke="#69223a" stroke-width="92" opacity="0.28" filter="url(#soft)"/>
  <path d="M-80 188 C176 64 362 290 562 190 C812 66 1008 104 1280 -32" fill="none" stroke="url(#gold)" stroke-width="4" opacity="0.78"/>
  <path d="M86 706 C254 604 428 754 608 668 C820 566 930 606 1120 506" fill="none" stroke="#eebf80" stroke-width="2" stroke-dasharray="9 18" opacity="0.42"/>
  <g opacity="0.28">
    <path d="M912 156 h172 a34 34 0 0 1 34 34 v172 a34 34 0 0 1 -34 34 h-172 a34 34 0 0 1 -34 -34 v-172 a34 34 0 0 1 34 -34z" fill="none" stroke="#f1c47d" stroke-width="2"/>
    <path d="M932 206 h132 M932 256 h132 M932 306 h82" stroke="#f1c47d" stroke-width="2" stroke-linecap="round"/>
  </g>
  <circle cx="216" cy="174" r="122" fill="#a33455" opacity="0.18" filter="url(#soft)"/>
  <circle cx="992" cy="650" r="164" fill="#d8a760" opacity="0.12" filter="url(#soft)"/>
</svg>
